<?xml version="1.0" encoding="utf-8"?>
<!-- Generator: Adobe Illustrator 25.3.0, SVG Export Plug-In . SVG Version: 6.00 Build 0)  -->
<svg version="1.1" xmlns="http://www.w3.org/2000/svg" xmlns:xlink="http://www.w3.org/1999/xlink" x="0px" y="0px"
	 viewBox="0 0 450 430" style="enable-background:new 0 0 450 430;" xml:space="preserve">
<style type="text/css">
	.st0{stroke:#000000;stroke-miterlimit:10;}
	.st1{fill:none;stroke:#000000;stroke-miterlimit:10;}
	.st2{fill-rule:evenodd;clip-rule:evenodd;stroke:#000000;stroke-miterlimit:10;}
	.st3{fill:#A61300;stroke:#000000;stroke-miterlimit:10;}
	.st4{fill:#A21600;}
	.st5{fill:#8B1B00;stroke:#8B1B00;stroke-miterlimit:10;}
	.st6{fill:#731300;}
	.st7{fill:#8B4E00;}
	.st8{fill:#605857;}
	.st9{stroke:#000000;stroke-width:0.25;stroke-miterlimit:10;}
	.st10{fill:none;stroke:#000000;stroke-width:0.25;stroke-miterlimit:10;}
	.st11{fill:url(#SVGID_1_);}
	.st12{fill:url(#SVGID_2_);}
	.st13{fill:url(#SVGID_3_);}
	.st14{fill:url(#SVGID_4_);}
	.st15{fill:url(#SVGID_5_);}
	.st16{fill:url(#SVGID_6_);}
	.st17{fill:#DDD817;}
	.st18{fill:url(#SVGID_7_);}
	.st19{fill:url(#SVGID_8_);}
	.st20{fill:url(#SVGID_9_);}
	.st21{fill:url(#SVGID_10_);}
	.st22{fill:url(#SVGID_11_);}
	.st23{fill:url(#SVGID_12_);}
	.st24{fill:none;}
	.st25{fill:#450900;}
	.st26{fill:#731600;}
	.st27{fill:url(#SVGID_13_);}
</style>
<g id="Layer_1">
	<g id="Layer_1_1_">
		<g>
			<path class="st0" d="M319.1,177.1c0,0,14-1.7,17.7-2.1c0.5-0.1,1.1-0.3,1.5-0.6l1.2-0.9C327.3,172.1,310.1,177.1,319.1,177.1z"/>
			<path class="st0" d="M317.4,174.3c5.5-0.5,15.9-1.5,19.2-1.8c0.3,0,0.3-0.4,0.1-0.5c-2.5-1-9.6-3.6-14.9-5.3
				c-3.3-1.1-6.7,1.1-7.2,4.5C314.2,172.9,315.7,174.5,317.4,174.3z"/>
			<path class="st0" d="M351.8,194.6c5.7,0.6,10.4,2.4,13.3,6.4c1.1,1.5,2.9,2.4,3.6,4.4c0.6,1.9,1.3,3.8,2.4,5.6l5.1,5.5
				c-0.9-1.4,0.4-8.3-1.7-13.5c-0.8-2.1-1-4.1-2.4-6.1c-2.6-3.6-16.8-3.2-21-4.1c4.4-1.5,16.7-3.2,21.2-2.6l4.5,0.4l-0.6-4.1
				c-0.4-1.9-2.1-4.3-3-6l2.3,2.6c5.7,1.4,9.9,0.2,11.2-3.4c1-2.9-0.1-6.3-2.2-7.8c-2-1.4-4.9-2.6-7.1-2.8c-6-0.5-11.9,1.2-17.7,2.7
				l-6.1,1.6l5.9,2.2c4.6,1.8,7,4.2,8.8,8.8c-6.6-0.3-13.1,0.6-18.7,4.1l-7.7,6.6L351.8,194.6z M364.9,172.7
				c3.7-0.5,8.7,0.4,12.3,1.1c1.6,0.3,3,1.2,4.2,2c1,0.7,1,1.5,0.7,2.3c-0.5,1.5-2.2,1.7-4.3,1.4l-0.7-1.2l-5,3
				C370.5,178.7,367.3,174.5,364.9,172.7z"/>
			<path class="st0" d="M384,148.5c-1-1.1-2.5-1.7-4.1-1.7l0,0c-1.9,0-3.9,0.9-5.1,2.3c-1.7,1.9-2.5,4.5-2.6,8
				c0,1.8,0.2,4.4,1.9,6.4c0,0,0,0,0.1,0.1l0.5,1.2l0.8,3.1l2.2-2.4c1.4,0.3,4.9,1,6.3,1l4.9-0.7c1.5,0,2.5-0.8,4.2-2.4
				c1.9-1.8,2.5-3.9,2.5-5.5c0.1-1.6,0.7-3.6-0.4-5.4c-0.7-1.2-2.1-2.2-3.5-2.5c-1.2-0.2-2.4,0-3.3,0.8l-0.5,0.4l-0.8,3.3l1.7,4.7
				l1.6-3.5c0.2,0.1,1.2-0.2,1.4,0c0.5,0.8,1.2,0.4,1.2,1.8c0,1.3,0.2,2.1,0.1,3c-0.3,2-3.1,3.6-4.3,3.6l-4.7-0.7
				c-0.4,0-3.1-1.4-3.5-1.4l1.6-2C385.9,155.2,386.5,151.2,384,148.5z M376.8,160.3c-0.4-0.7-0.6-1.7-0.5-3.2c0-2.5,0.5-4.2,1.5-5.4
				c0.5-0.6,1.4-1,2.2-1l0,0c0.4,0,0.8,0.1,1.2,0.4c1.1,1.2,2,4.9,0.4,6.8L376.8,160.3z"/>
			<path class="st0" d="M400.6,139.9l-6.9-10.1l2.2,5.4l-0.5,6.8c-3.5,1.1-5.8,2.1-9.4,1.4c-2-0.4-3.2-0.9-4-1.8
				c-1.9-2-1.5-4.1-0.6-7.1c0.1-0.2,0.9-1.9,1-2.1c0.1-0.2,0.7-0.8,1-0.8c2.1-0.3,5.8-0.6,6.8,1.3c0.3,0.6,0.1,1.2,0,1.6
				c-0.3,0.8-0.9,1.4-1.5,1.7c-1.4,0.6-3,3-4.5,1.8l-2.8,0.4c2.6,2.1,6.1,2.6,8.8,1.5c1.7-0.7,3.1-2.2,3.7-4
				c0.6-1.6,0.5-3.3-0.1-4.7c-1.1-2.2-3.9-4.6-11-3.5c-0.9,0.2-2.4,0.4-3.5,1.6c-0.7,0.8-1,1.7-1.2,2.3c-1.2,4.1-2.2,9.2,1,12.7
				c1.9,2,4.4,2.6,6.2,3c1.6,0.3,3.2,0.4,4.8,0.4c3.2,0,4.2-1.7,7.2-2.8L400.6,139.9z"/>
			<path class="st0" d="M351.8,123.7c1.5,1.8,3.9,3.2,5.7,3.3c1.3,0.1,4.1,1.1,5.4,1.1c3.8,0,6.7,0.4,10.4-0.6
				c4.6-1.2,6.6-6.3,7.2-9.5c0.3-1.7-0.2-3.4-1.3-4.9c-1.1-1.4-2.8-2.3-4.5-2.4c-0.7,0-1.4,0.1-2.1,0.3l0.1-1.3l-0.6-3l-2.9,8.5
				c-0.1,0.5,0.1,1.8,0.1,1.8l2.8,2.1l0.2-2.6c0.1-0.4,0.3-0.8,0.6-1.1c0.5-0.5,1.1-0.7,1.6-0.7s1.1,0.3,1.5,0.9
				c0.4,0.5,0.6,1.2,0.5,1.7c-0.3,2-3.2,3-4.9,3.5c-4.5,1.2-9.1,1.6-13.8,1.2c-1.1-0.1-2.5-0.3-3.1-1c-0.2-0.3-0.4-0.8-0.5-1.4
				c-0.3-2.2,0.7-4.6,2.5-5.9s3.5-4,5.5-2.9l5-1.4c-3.3-1.7-9.9-1-12.9,1.1c-3,2.2-4.7,6.1-4.1,9.8
				C350.6,121.6,351.1,122.8,351.8,123.7z"/>
			<path class="st0" d="M369.8,96.8c-1.3,1.9-1.4,4.3-0.2,6.1c1,1.5,2.7,2.4,4.7,2.4c0.1,0,0.3,0,0.4,0c2.2-0.1,4.1-1.3,5-3.1
				c0.5-1.1,0.7-2.3,0.6-3.5c2,0.2,2.7-0.6,4.6-1.2l1.2-5.6c-2.6,3.8-6.3,3-8.7,2c-0.6-0.4-1.3-0.8-2.1-0.9l-7.1-0.6l3.2,2.8
				C370.8,95.6,370.2,96.1,369.8,96.8z M373.1,99c0.2-0.3,0.6-0.7,1-0.7h0.1c0.3,0.1,0.6,0.2,1,0.4c0.3,0.2,0.7,0.3,1,0.4
				c0,0.4,0,0.8-0.2,1.1c-0.3,0.5-0.9,0.9-1.7,0.9c-0.3,0-1.1,0-1.5-0.6C372.6,100.2,372.8,99.5,373.1,99z"/>
			<path class="st0" d="M380.1,84.2c-1.3-0.1-0.7,0.1,0,0.2V84.2z"/>
			<path class="st0" d="M383.2,88.6c1.3,1.2,2.8,1.8,4.4,1.8c0.4,0,2.4,0.1,2.7,0l3.4-1l-4.4-2.7c-1.2-0.8-2.6-1.3-4-1.7
				c-0.3-0.5-0.5-1.1-0.3-1.7c0.2-0.8,1.1-1.3,1.8-1.5c0.7-0.2,3.6,0.3,4.2,0.8l3.6-1.8c-1.5-1.5-6.6-3.6-8.9-3s-4,2.2-4.6,4.3
				c-0.2,0.8-0.3,1.5-0.2,2.3c-0.2,0-0.6,0-0.9-0.1l0.6,3.7C381,88.4,382.1,88.4,383.2,88.6z"/>
			<path class="st0" d="M386.2,66l-0.5,1.3c-0.9,2.6-0.3,5.5,1.6,7.9c1.9,2.3,4.7,3.6,7.4,3.2l1.4-0.2l0.4-1.3c0.2-1,0.4-2,0.3-3
				c0.2,0.2,0.5,0.3,0.7,0.5c0,0.1,0,0.2-0.1,0.2c-1.2,4.8-0.3,9.1,2.5,11.7c1.7,1.5,4.1,2.4,6.8,2.4c0.5,0,1,0,1.5-0.1
				c0.7-0.1,1.6-0.3,2.4-0.9c0.7-0.6,1.1-1.3,1.3-2.4c0.9-4.7-3.8-8.2-5.3-9.4c-1.4-1.1-2.9-2.1-4.3-3.1c0.1-0.4,0.3-0.8,0.5-1.2
				c0.7-1.9,1.5-3.8,1.8-6c0.4-2.3,0.1-4-0.9-5.4c-0.8-1.1-2.1-1.9-3.5-1.9c-1.2-0.1-2.4,0.4-3.1,1.3l-0.4,0.5l-0.7,6l2.7-2.6l1.7-1
				l0,0c0.3,0.5,0.4,1.3,0.2,2.5c-0.3,1.8-0.9,3.4-1.6,5.2c0,0.1-0.1,0.2-0.1,0.3c-1.6-1.1-3.2-2.1-4.8-3.1l-0.8-0.5v-1.1h-1.6
				l-8.1-5.1l4.2,5.2L386.2,66z M401,77c1,0.8,2.1,1.5,3.1,2.3c2.9,2.1,4.1,3.9,3.8,5.4l0,0c-0.1,0-0.1,0-0.2,0
				c-2.1,0.2-4-0.2-5.1-1.3C400.9,81.9,400.6,79.3,401,77z M391,69.9l0.4,0.5l1.4,4c-0.8-0.3-1.6-0.8-2.3-1.6
				c-0.7-0.8-1.1-1.8-1.1-2.8L391,69.9z"/>
			<path class="st0" d="M210.6,152.6c-6.8-1.7-13.6-3.6-16.8-4.8l-3.9,0.5l1.4-0.5c-4.1,0-7.7,0.6-10.2,1.6l-6,0.8
				c3.1,4.7,19.6,14.2,28.2,16L210.6,152.6z"/>
			<polygon class="st0" points="254.8,175.2 282.3,177.1 313.9,177.1 309.3,166.9 302.7,167 286.6,166.4 254.4,162.2 213.3,154.4 
				207.7,167.9 			"/>
			<path class="st0" d="M320.1,268.7c0.5,1.6,2,2.3,3.3,2.8c0.8,0.2,1.6,0.4,2.4,0.4c0.7,0,1.3-0.3,1.9-0.5c0.9-0.4,1.3-0.8,2.1-1.6
				c0.5-0.6,0.9-0.7,0.9-1.6c0.1-1.9-1.5-4.2-2.5-4.6c-1.5-0.6-2.4-0.9-3.7-0.5c-0.1-2.6-0.3-3.5,0.7-5.9c1.2-2.9,3.9-4.3,3.2-7.3
				L328,249l-1-0.3c-1.3-0.2-1.5,0.3-2.5,0.8c-3.1,1.5-6.2,4.2-5.5,9.2c0.2,1.5,2.4,5,2.3,5.9C320.5,265.1,319.6,267,320.1,268.7z
				 M320.1,257.3c0-4.1,2.9-5.2,5.1-7c0.5-0.4,0.9-0.5,1.5-0.5c0.1,0,0.3,0.1,0.4,0.2c0.5,2.6-2.3,3.4-3.4,6.1
				c-1.1,2.7-0.3,5.6,0,8.6l1.4-0.4l1.2,0.3c1.8,0.4,1.4,0.5,1.9,1.1s1,1.5,0.8,2.4c-0.1,0.4-0.4,0.8-0.8,1.2
				c-0.5,0.5-0.7,0.6-1.6,0.7c-1.2,0.1-1.6,0.6-2.8,0.2c-1-0.3-2.1-1.2-2.2-2.4c0-0.8,0.2-1.2,0.9-1.5l0.2-0.1l0.1-0.6
				C323,264.6,320.1,259,320.1,257.3z"/>
			<path class="st0" d="M209.8,105.8l12,11c0.1,0.1,0.2,0.3,0.3,0.4l6.7,17.8c0.1,0.4,0.4,0.6,0.8,0.7l12.7,2.6l18.5,4.3l11.5,1
				c1.6,0.1,3.3,0.1,5-0.1l14.5-1.6l-2.4-9.2l-0.8-4.6c-0.7-3.7-1.9-7.2-3.6-10.5c-1.2-2.2-3.2-4-5.6-4.8l-0.3-0.1
				c-4.5-1.6-9.4-2.2-14.1-1.5l-6.6,0.9l-9.6-4.7c-1.9-1.3-9.4-7.8-11.5-8.6l-10.3-4c-1.1-0.4-2.3-0.6-3.5-0.6l-4.2,0.1
				c-1.5,0-2.9,0.7-3.9,1.9l-5.4,6.3C208.8,103.5,208.8,104.9,209.8,105.8z"/>
		</g>
		<g id="XMLID_1_">
			<path class="st1" d="M296.5,151.6c1.3,4.3,2.9,8.2,5,10.7c-7.4-0.5-28.5-5-53.8-7.7c-30.7-3.2-49.6-7.5-54.2-11.4
				c5.2-0.3,10.1-1.2,12.9-1.8c8.3-1.8,9.1-2.9,9.2-4c14.6,3.6,30.4,8.6,47.9,11.5c8.8,2.2,16.4,3.2,23.6,3.6
				C290.2,152.6,293.4,152.3,296.5,151.6z"/>
			<path class="st1" d="M303.3,126c2.9,6.3,0.8,19.1-2.7,25.4c-1.5-4.7-2.7-10.3-3.5-15.5h0.1c0.3-1.5,1.8-2.8,3.3-4.1
				C301.2,131.1,303.1,127.1,303.3,126z"/>
			<path class="st1" d="M296.8,183.2c0.5,0.6,0.8,1.2,0.7,2.3c-0.2,2.1-1.9,2.7-2.2,3.8c-1-1.9-1.9-4.6-2.2-6
				C294.5,183.2,295.7,183.2,296.8,183.2z"/>
			<path class="st1" d="M265.4,187.1H265c-0.2-0.1-0.4-0.2-0.6-0.3C264.8,186.9,265.1,187,265.4,187.1z"/>
			<path class="st1" d="M313.9,204.9c0,0.2,0.1,0.6-0.1,0.7c-0.2,0.8-0.2,0.8-1.1,1.8c-1.1-1.3-3.4-2-4.9-3.3
				c-2.5-2.2-9.4-7.2-11.1-11.1c4.4,3.3,14.4,7.9,17.1,11.6L313.9,204.9z"/>
			<path class="st1" d="M315.6,317.9c2.1,2.9,3.6,7.7,0.8,10.8c-1-7.8-9.3-14.5-16.2-16.1c-11-2.6-16.9-11.4-16.2-26.5l0.4-4.3
				l-3.3,2.5c-0.2,0.1-6,3.3-6,12c0.1,0.4,1.3,3.9,1.4,4.3c-0.4-0.5-3.6-3.2-3-4.8l0,0c4.6-10,5.3-19.7,0.3-26.8
				c-3.3-4.6-4.1-9.3-3.5-14.1l0.7,4.7c0,0.1,1.4,4.6,1.4,4.6c5.5,9.7,10.7,7.1,16.9,9.8c0.5,0.2,2,0.7,2.4,1c0.5,0.5,0.8,1,0.9,1.1
				c3.3,4.8,3.3,8.4,3.1,12.8c0,0,0,0,0,0.1c-2.6,12,5.5,18.3,14,24.4c1,0.8,2,1.5,3,2.2L315.6,317.9z M291.6,277.6l-3-3.3
				c0,0.4,1,1.1,0.4,1.3c-3.9,1.7-3.6,2.8-3.9,3.8l-0.2,1c-0.1,0.2-0.1,0.3-0.1,0.5l0.1-0.5C285.6,278.4,289.4,276.7,291.6,277.6z"
				/>
			<path class="st0" d="M321.3,250.2c0,0.3,0,0.6-0.2,0.9l-8-10.1c-0.5-0.7-1.8-4-2.2-4.6l1.1,1c0.3,0.3,0.6,0.7,0.9,1
				c0.4,0.6,1,1.3,1.3,1.8l6.5,8.3C321.1,249.1,321.3,249.6,321.3,250.2z"/>
			<path class="st0" d="M334.4,248.3c0.2,0.6,0.3,1.2,0.3,1.9c0,0.9-0.2,1.8-0.3,2.4l0,0v0.1c-0.3,1.3-1.5,3-2.9,3.9l-0.2,0.1
				c-0.4,0.2-0.8,0.5-1.2,0.5c-0.1,0-0.2,0-0.3,0c-0.4,0-0.8-0.1-1.2-0.2c-0.2-0.1-1-0.7-1.3-1.2l1.2,0.1c0.4,0.1,0.9-0.1,0.9-0.1
				c0.3,0.1,0.4,0,0.7-0.1c1.5-0.9,0.6-0.3,1.5-0.9l0.4-0.7c0.7-1,0.7-0.7,1-1.8s1-2.5,0.6-3.5c-0.3-0.8-0.2-0.8-0.7-1.2
				c-0.2-0.1-0.5-0.4-0.9-0.7c-1-0.8-1.2-1-2.3-2.1c-0.3-0.3-0.9-0.9-1.2-1.1c-0.4-0.3-0.9-0.6-1-0.8s-0.5-0.4-1-0.8
				c-0.5-0.4-1.3-1.3-2.2-2c-0.6-0.6-2.9-2.1-3.3-2.4l2,0.8c0.4,0.3,1,0.5,1.6,1.1c0.9,0.7,1.8,1.5,2.3,1.9c0.6,0.5,0.9,0.7,1,0.9
				s0.2,0.3,0.5,0.5c0.4,0.3,0.7,0.6,1,0.9c1.1,1.1,2,1.8,2.9,2.6c0.3,0.2,0.6,0.5,0.8,0.7C333.9,247,334,247.3,334.4,248.3z"/>
			<path class="st0" d="M338.2,300.8l-0.2,0.1C338,300.9,338,300.8,338.2,300.8z"/>
			<path class="st1" d="M267,247.1c-1.1,2.2-2.2,5.4-1.9,10.2c-1.4-1.1-4.7-4.6-6.1-5.3c-2.7-1.2-4.1-2-4.5-3.3
				c2-2.4,3.3-6.8,4.1-10.7C261.4,241,264.2,244.1,267,247.1z"/>
			<path class="st1" d="M271.8,276c1.8,5.8,3.1,11.4,0.5,17.8c-1.2-6.9-3.9-14.1-10.6-12.7c-0.4,0.1-0.9,0.1-1.2,0.1l-1.4-0.6
				c-1.1-0.4-2-4.6-2.2-16.6c1.2-0.2,2.4-0.7,2.8-1c0.1-0.1,0.2-0.1,0.4-0.2c0.9,1.3,1.9,2.8,2.7,4.2
				C265.5,271.1,268,275.2,271.8,276z"/>
			<path class="st1" d="M266.8,255c0.1,4.8,1.4,9.5,2.8,14c-0.9-1.3-1.9-2.9-3.3-4.2c-1-1-4.6-2.5-3.9-4.3c0.2-0.5,0.2-1.2,0.1-1.7
				l-0.4-1.9l3.4,4.9C266.8,261.2,266,259.2,266.8,255L266.8,255z"/>
			<path class="st0" d="M173.3,105.4L173.3,105.4L173.3,105.4L173.3,105.4z"/>
			<path class="st1" d="M214.1,137.1h-0.6l0.1-0.1C213.8,137,214,137.1,214.1,137.1z"/>
			<path class="st1" d="M258.1,253.8c-0.3,0.1-3.1,2.3-3.4,2.4c-0.3,0.1-1.6-0.1-1.9,0c0.1-0.5,1.7-3.6,1.8-4
				C255.1,252.4,257.6,253.5,258.1,253.8z"/>
			<path class="st1" d="M279.9,257.7c-0.1,0.8-0.4,1.9-0.9,2.5c0,0-0.1,0.3-0.4,0.6h-0.1l-2,1.6c-0.2,0.1-0.9,1.3-1.1,1
				c-1.8-2.3-2.2-4.8-2.6-8.9c0-0.4,0.6-3.9,0.9-3.7C275.6,252.7,277.8,255.2,279.9,257.7z"/>
			<path class="st1" d="M258.2,256.1c0.2,0.4,1.5,3.3,1.6,3.8c-0.6,0.4-3.1,1.3-3.7,1.3c-0.4-0.3-2.5-2.2-2.8-2.5
				c0.2-0.1,1.9,0.1,2,0C256.2,258.4,257.4,256.6,258.2,256.1z"/>
			<path class="st1" d="M101.8,45.4l61.4,58.9c-1,0.8-1.9,1.9-2.8,3.2L99.6,48L101.8,45.4z"/>
			<path class="st1" d="M283,261.1c0.2,0.3,0.1,0.7-0.3,0.7s-0.8,0-1.2,0c0.3-0.3,0.7-0.7,1.1-1.1C282.7,260.8,282.8,261,283,261.1z
				"/>
			<path class="st0" d="M285,280.5l-0.1,0.5C284.9,280.8,285,280.6,285,280.5z"/>
			<path class="st1" d="M288,267.4c0.2,0.3,1.4,1.1,1.3,1.5c-1.2,2.8-10.9-3.3-13.2-4.7c0.9,0.2,5.5,1.6,6.3,1.6c1,0,2-0.1,2.8-0.1
				c0.4,0,0.9-0.1,1.3-0.1c0.1,0,0.3,0.1,0.4,0.2C287.2,266.3,287.6,266.9,288,267.4z"/>
			<path class="st1" d="M112.7,64.6l45.6,46.4c-0.8,1.6-1.5,3.3-2.1,5l-46.4-47.6L112.7,64.6z"/>
			<path class="st0" d="M288.6,274.3l3,3.3c-2.2-0.9-6,0.8-6.6,2.8l0.2-1c0.3-1-0.1-2.1,3.9-3.8
				C289.6,275.4,288.6,274.7,288.6,274.3z"/>
			<path class="st1" d="M187,123.8c-0.2,1.7-0.3,3.4-0.3,5.2c0,3.5,0.4,7,1.4,10.4c-5.5,0.1-10.7,0.5-14.9,1.1
				c-0.2,0-0.4,0.1-0.6,0.1c-0.1-0.3-0.2-0.7-0.5-0.9c-2.9-2.7-5.3-5.5-7.6-8.2c-1.9-2.2-3.1-3.4-5-5.2c-0.3-0.3-0.6-0.8-0.6-1.2
				c-0.7-5.6,3.6-15.8,7.8-18.3c0.6-0.4,1.1-0.4,1.4-0.4h0.1l2.4,2C175.7,113,181.5,118.6,187,123.8z"/>
			<path class="st1" d="M291.9,123.6c0.1,1.8,0.8,10.7,2.6,19.9c-7.5,1.3-12.9,4.5-30.2,2.5l-12.7-2.2c-18.7-3.1-22.3-5-36.7-8.3
				c-2-2.5-3-6.1-4.1-10.3c-1.5-5.7-3.3-12.2-8.5-17.9c6.1,2.8,14.5,12,19.6,19.8l-0.3-3c-4.9-7.4-9.8-15.8-16-19.6
				c4.6-7.3,9.6-13.5,17.8-13.5c1.7,0.3,17.2,3.5,25.3,12.5c1.2,1.5,5.3,4.7,9.5,4.7c0.3,0,0.7-0.1,1.1-0.1l0,0
				c7.4-1.4,20.3-2.4,23.9,1.3l1.4-1.4l-1.4,1.5C285.3,111.6,290.1,116.1,291.9,123.6z"/>
			<path class="st1" d="M250.4,249.8c-0.2,5.7-1.6,11.5-4,15.5c-0.3,0.5-0.6,0.9-0.9,1.3l-0.6,0.9c-0.6,0.5-0.3,0.3-0.7,0.8
				c-1.5,1.8-2.9,3.3-3.2,4.9l-0.4-0.7c-3.4-4.8-11.2-9.3-32.2-14.3c-31.6-7.5-76.4-17.8-82.7-39.3c0.3-7,2.4-17,5.8-23.7
				c5.2,13.2,15.2,32.3,35.9,41.7C189.7,246.9,219.7,246.4,250.4,249.8z"/>
			<path class="st1" d="M286.2,265c0.1,0.1,0.1,0.2,0.2,0.3C286.3,265.2,286.2,265.1,286.2,265L286.2,265z"/>
			<path class="st0" d="M190.6,99.8L190.6,99.8C190.6,99.8,190.7,99.9,190.6,99.8z"/>
			<path class="st1" d="M252.9,262.6c0,7.4,0.4,13,1.8,16.5c-3.8-3-6.9-8.7-6.9-12.1v-0.5c0-0.1,0.1-0.2,0.1-0.3
				c1-1.7,2.2-3.6,3.2-5.7C251.7,261.5,252.4,262.2,252.9,262.6z"/>
			<path class="st1" d="M277.6,303.8c2.1,1.3,4,3.8,6.4,12c-8.8-5.5-20-7.3-25.5-7.5c-0.1-2.3-1.5-5.1-4.9-8.2
				c10.6,1.5,20.8,4.6,27.2,8.1l-5.4-3.8c-17.2-9.5-42-10.9-53.9-7.2c-0.2,0.1-0.4,0.1-0.6,0.2c2.9-17.7-0.5-25.7-5.6-31.6
				c12.9,3.1,23.9,6.2,26.2,9.4v-0.7c0.7-2.1,2.7-2.2,3.7-3.3c2.1,4.8,4.7,7.7,9.5,9.4c0.9,0.1,3.3,0.9,3.5,1.4l1.1,0.8
				c6.3,3.2,11.2,8,11.7,13.6c1,3.1,1.8,5.2,3.5,5.8c0.6,0.2,1.3,0.5,2,0.8c0,0.1,0.4,0.2,0.4,0.3L277.6,303.8z"/>
			<path class="st1" d="M254.7,181.2c-0.7,0.1-1.4,0.2-2.6,0.3c-1.4-0.2-3-0.2-5.3,0.3l3.3-1.1C251.7,181,253.2,181.1,254.7,181.2z"
				/>
			<polygon class="st1" points="117.7,45.4 113,50.3 112.5,49.8 117.2,45 			"/>
			<path class="st1" d="M173.3,105.4L173.3,105.4l-1.3,1.4L173.3,105.4L173.3,105.4L173.3,105.4z"/>
			<path class="st1" d="M210.6,136.3L210.6,136.3c-3.5,1.1-11.2,2.8-18.3,3c-3.6-9.9-3.5-23.6,0-30.6c0.8-1.5,1.2-2.8,1.3-3.9
				c10.3,5.6,11.3,14,13.4,21.7C207.9,130,208.9,133.4,210.6,136.3z"/>
			<path class="st2" d="M190.7,99.9L190.7,99.9C190.7,99.9,190.6,99.8,190.7,99.9z M168,145.9v0.1c0.8,2.2,8.7,8.9,20.2,15.1
				l0.4,0.2c18.1,15.1,99.3,19,112.2,17.6v0.1c19-0.6,38.5-3,41.6-5.3v-0.1c-3.4-1.9-22.1-8.3-35.5-11.6c0.4,0.9,0.2,1.9-0.5,2.6
				c-0.5,0.4-1,0.9-4.3,0.9c-2.7,0-7.4-0.3-15.4-1.2c-10.4-1.2-24-3.2-37.4-5.4c-16.2-2.7-54.6-9.6-59.7-14.9
				c-0.3-0.3-0.5-0.5-0.6-0.8C176.6,143.4,169.2,145,168,145.9z M281,232.6c-0.3,0.4-2.7,1.7-2.4,1.7c1.1,0.2,3.5-0.2,5.3-0.2
				c1.4,0,2.4-0.2,4.5-0.2h1.1v-0.1c0.9,0.3,1.6,0,2.4-0.6c0.7-0.6-5.6,9.4-5.9,10.3c0.8-0.6,7.5-5.7,8.5-6.5l0.8-0.6l0.8-0.7
				c0.9-0.6,0.9-0.6,1.3-1.9c0.2-0.5,1.4,1.9,1.6,2.4c0,0.1,0.3,3.1,0.4,3.1c1.1-0.9,1.8-5,2.6-6.1c0.5,1.5,0.5,3.1-0.1,4.5
				c-0.5,1.2-0.8,2.2-2.1,3.3c-0.5,0.4-1,0.8-1.5,1.3l0.1-1.7l-1-3c0-0.2-2.3,2.4-2.3,2.3c-4,2.9-5.9,3.6-7.2,4.3c0,0,0,0-0.1,0
				c-0.6,0.1-4.3,1.7-4,1.3c1.1-1.5,2-4.8,2.9-6.5c0.3-0.6,0.8-1.6,1.1-2.3c-7.6-0.3-13.5-2.5-11-2.5c1.2,0,2-1.1,2.9-1.7l1.8-2.1
				c0.9-1.1,2.2-2.3,2.2-2.4c-0.6-1-10.4,1.4-13.5,1.4c-4.7,0-6,0.5-8.2,3.1l-2.4,2.7c3.7,4.1,9.6,6.4,13.5,10.4l0.6,0.4
				c4.6,3.6,9.5,9.4,14.8,16.2c0.2,0.2,0.5,0.4,0.7,0.6l-0.1,0.1c5.3,7.1,8.2,16,7.7,26.4v0.1c-2.2,9.5,6.7,15,14.9,20.9
				c0.9,0.6,2.5,1.9,3.7,2.8l47.2,33.9c3.8-3,7-7.1,9.7-11c0.9-1.3,1-1.4,1.2-1.8s0.6-0.9,1.7-2.7c0.9-1.4,0.9-1.4,1.8-3.7
				c1.3-3.4,2.4-7.5,1.9-10.5c-0.6-3.2-4.3-5.1-8.4-5.6c-1.5-0.2-6.9,2.1-7.5,2.8c-0.7,0.8-1.8,2.4-2,3.2c-0.3,1.6-0.6,1.3-0.1,3.6
				c0.2,1.1,1.2,3.2,4.3,3.2c1,0,5.7-3.9,6.5-4.9l-2,4.5c-1.5,2-2.7,3.3-5.1,3.2c-2.2-0.1-4.8-1.8-6-3.9c-1.3-2.1-1.1-4.2-0.8-6
				c0.3-1.9,1.8-3.6,2.8-4.8c2-2.3,6.7-2.8,8.7-2.5c4.6,0.6,7.5,1.3,10.4,5.4c2.5,3.6,2.6,8.7,1.2,13.5c-0.8,2.8-1.2,3-2.2,4.5
				c-1.1,1.7-1.4,2.2-1.6,2.6c-0.3,0.4-0.3,0.5-1.3,2c-2.6,3.8-5.8,7.9-9.6,11.1l7.8,5.6c8.7-3.9,32.6-21.2,36-31.7
				c0.1-0.4,0.2-0.7,0.3-0.9c-1.2-1-2.7-2.1-4.1-2.6c-9.7-3.6-18.3-7.2-26-10.6c3.5,2.5,6.3,5.9,7.6,7.4l-4.9-3.3
				c-1.5-0.8-4-2.4-8.3-3.8c-8-2.7-14.6-5.7-22.9-4.2c-0.5,0.1-3.7,1-4.1,1.3c-3.3,2.1-6.8,3.6-10.2,2.5c-3.6-1.1-6.3-4-7-7.4
				c-0.8-3.9,1.2-7.9,4.6-9.4c2.6-1.1,6.2-0.6,7.8,2.2c0.9,1.6,1,4.4-0.5,5.2c-1.3,0.6-3.4,1.2-4.1,1.5l2.9-2.2
				c0.4-0.5,0.9-2.2,0.1-3s-1.5-0.9-1.6-0.9c-1.2-0.2-2-0.1-2.9,0.9c-1.2,1.3-2,2.7-2.3,4.9c-0.2,2,1.8,5.5,4,6.1
				c2.5,0.8,5.6-1.5,8.6-2.1c0.5-0.1,1.1-0.2,1.6-0.3c8.3-1.5,16.8-1,24.8,1.4c-21-10.2-33.3-19.8-36.7-27.6c-0.7-1.6-1-3.1-1-4.6
				c0-1.3,0.3-2.6,0.8-3.9l0,0l0,0l0.1-0.2c2.1-4.9,3.5-8.5,1.3-10.5l-1.4-2.7c-0.8-0.7-1.6-1.3-2.3-1.9c0.5-0.4,0.9-1,1.2-1.5
				c1.2,1.1,2.4,2.1,3.7,3.2l-1.3,1.5l1.3-1.5c2.5,2.2,4.8,6.7,1.3,15l-0.1,0.2l-1.9-0.8l1.8,0.8c-0.7,1.6-0.6,3.4,0.2,5.4
				c3.1,7.1,17.2,19.5,67.7,38.2c3,1.1,3.4,1.3,3.7,1.5l-1.1,1.7v0.1l1.1-1.8c1.9,1.1,2.8,3.1,2.6,5.5
				c-0.7,11.1-25.6,34.5-35.8,39.2c-1,0.5-2.2,1-3.5,1c-0.4,0-0.7-0.1-1-0.1c-0.4-0.1-0.7-0.3-1-0.5l-0.6-0.7l-51.9-38.7
				c1.5,4.9,0.9,10.9-6,16.1l-0.5-2.2c-2.5-8.4-10.2-15.6-16.2-19.6c-7.9-5.3-18.7-14.9-17.1-28.8c-0.6,1.2-3.7,2.5-3.7,8
				c0.2,2.8,1.2,5.4,3.2,7.2l0,0c2,2.6,4.2,6.9,6.6,15.5c0.8,0.6,1.5,1.3,2.2,2l1.1,1.4c5.5,7.8,10.8,11.8,18.8,18.3l0,0l0,0
				c2.4,2.4,3.9,6.5,3.4,11.6c-1.7,17.4-22.4,50.7-31.4,56.6l3.1-5.6c8.4-5.5,20.6-34.5,22.1-50.4c0.4-3.8-0.3-7.4-1.8-8.9l0,0
				c-8.1-6.6-10.9-13.5-16.6-21.6c-9.2-8.8-26.1-9.8-30.2-9.8c-0.4,0-1.1,0.2-1.6,0.1l-1.9,0.1c-1.3,0.2-2.8,0.6-2.8,0.1
				c0.3-0.5,5.7-7.3,0.5-11.8c-3.2-0.4-6.5-0.7-9.7-0.7c-10.6-0.2-16.6-0.3-20.1,0.5c-1.9,0.4-2.3,0.5-4.1,1.2
				c-0.3,0-1.2,0.5-1.6,0.4l-0.4-0.1c1.3-6.2,1.8-11.1,1.8-15.3c0-12-4.7-16.7-10.1-21.8c-31.4-7.4-74.9-21-84.6-43.6
				c-1.2,6.3,1.9,11.3,4.4,18.4l7.2,8.8l-12.1-9.4c-1,25.3,39.6,70.2,72.1,73.9l6.4,1.3c11.9,2.5,41.1,11.1,59.6,26.2
				c16,13,22.9,31.1,22.9,62.3l-3.1,5.6c0-29.6-19.2-56.2-34.6-68.7c-17.9-14.5-34.5-22.2-46.5-24.5l-2.6-0.4l-6.5-0.6
				c-15.9-1.8-37.9-8.4-54.1-23.1c-15-13.7-17.6-30.5-17.6-43.3c0-1.3,0-2.5,0.1-3.7c0-9.4,3.6-16.2,3.4-24.5c0,0-1-1.6-0.8-3.1
				l0.2-2.1c2-7.5,5.8-13.3,9.4-19.9c-0.4-0.4-0.7-0.8-1.1-1.1c-1.9-2.1-8.9-4.6-11.3-5.8l3.2-1.2c2-0.8,3-0.9,3.8-1
				c0.8-0.3,1.9,0.3,2.7,0.5c5.4,1.4,11.5,0.4,15.5-0.9c-4.1-1.1-5.3-3.2-6.3-5.9c-0.5-1.3-1-2.7-2.3-4.1l-3.7-1.5
				c1.9-0.6,4.2-0.5,4.6-0.7c2.3,0,3,0,4.6,0.2c0.4,0,0.8,0.1,1.2,0.1c5.1,0,12.4-3,17.3-6c-1-0.8-2-0.9-2.5-1.6
				c0,0-4.5-1.8-4.5-1.9l5.8-1.2c0.7-0.8,3.1-1.2,4.2-1.3c2.5-0.2,5.1-0.5,7.4-0.8c2.3-0.4,4.3-0.8,5.8-1.2
				c-5.9-4.1-11.3-8.7-11.5-11.9c-0.1-0.8,0.2-1.6,0.7-2.2c0.4-1,1.6-1.8,3.7-2.4c-2.5-2.5-4.7-5-6.8-7.5c-1.8-2.1-4-5-5.9-7
				c-0.3-0.3-0.5-0.6-0.5-1c-0.3-1.6-0.2-3.5,0.1-5.5l-49.5-53.2l4.3-5.7L95.3,47l4.7-5.7l3.1,2.5L103,44l5.2,4.7l8.9-9.3l6.2,6
				l-8.8,9.2l52.4,47.9c0.7-0.1,1.5-0.1,2.2,0c0.5,0.1,1.2,0.2,1.4,0.6l2.9,2.4l0,0l-1.3,1.4l1.3-1.4l0,0l0.1,0.1
				c4.6,4.3,9.4,8.8,14.4,13.3c0.8-4.1,1.9-7.7,3.1-10.4c0.9-2.1,0-8.1-0.3-8.7h0.1c0.3,0,0.5,0.1,0.8,0.2l10.4,3.3
				c5-8.1,12.4-15.2,22.4-15.6c0.1,0,0.1,0,0.2,0v-0.1c0.4,0.1,4.5,0.8,9.8,2.7c5.3,1.9,11.7,5,16.5,9.9c0.1,0.1,0.2,0.3,0.4,0.4
				c1.3,1.2,5.1,4.2,7.4,3.9c1.4-0.3,7.3-1.3,13.5-1.3c5.4,0,11,0.8,13.8,3.7c2.1,2,7.4,5.8,9.4,14.6c0,1.5,0.3,4.8,0.8,8.9
				c0.5-0.5,1.1-1,1.6-1.4c2-1.7,3.3-2.8,4-4.6l0.3-5l3.1,3.8c6,6.2-0.1,24.6-3.3,32.3c0.3,0.7,0.6,1.3,0.8,1.8
				c6.3,1.3,15.7,3.9,25.5,7.1c16.4,5.4,17.3,6.8,17.7,7.4c0.8,1.1,0.9,2.5,0.4,3.6c-1,2.1-4.3,4.5-20.9,6.2
				c-8.6,0.9-18.5,1.4-24.4,1.5c-0.6,0.1-1.3,0.1-2.2,0.2c0.4,1.9-0.4,3.5-1,4.6c-0.8,1.5-0.8,2.4-0.2,3.2c0.9,2.4,11.8,8.1,20,11.8
				c1.5,6.6-0.8,15-6.5,23.2l0.9-3.2c3.1-4.4,4.2-11.8,3.9-15.2c-0.7,0.9-2.6,3.2-3.4,3.7c-0.3,1.4-1.3,6.2-3.2,10.9
				c-0.3,0.8-0.6,1.4-0.6,1.6l0.1-1.5c0,0-0.3-2.6,0.1-3.4c0.7-1.7,0.3-5.1,0.3-6.3c0,0,0.2-0.8,0-1.1L309,211c-0.2-0.9-1-1.5-3.8-4
				c-3-2.6-9.4-10.6-10.6-16.1c-0.1-1.1-2.2-5.4-2.8-7.6c-4,0-8.8-0.2-14.2-0.4c0.5,0.5,1,1,1.5,1.7c0.2,0.2,0.4,0.5,0.6,0.8
				c0,0,0,0.1,0.1,0.1c1.1,0.9,2,3.2,2,5.2l-0.8-1.4l-0.2-0.3l-5.3-3.1c-0.5,0-1,0.1-1.4,0.2c-0.8,1.7-1.8,2.9-3.2,3.6
				c-1.2,0.8-2.6,1-4.1,0.8c-2.6-0.2-5.5-1.5-8.3-2.9v0.1c-0.7,0-1.2,0.1-4.5,0.7c-0.3,0.1-0.6,0.1-0.8,0.1l1.3-3
				c-0.2,0,0.3-0.6,0.3-0.6s0.1,0,0.1-0.1c-1.7-0.7-3.7-1-7.9-1l0.4-0.3c0.6-0.5,1.2-0.9,1.9-1.2l-2.3-0.4c2.3-0.5,4-0.6,5.3-0.3
				c1.1-0.1,1.9-0.3,2.6-0.3c-1.5-0.1-3-0.3-4.5-0.4l-3.3,1.1c0.5-0.5,1-0.9,1.5-1.3c-19.5-2.1-39.8-5.6-52.7-10.8
				c-7.6,1.1-13.8,8.1-16.6,15.4c7.8-2.6,16.1-1.4,20.2,0.2c3.9,1.5,5.8,2.1,8.4-0.3l3.8-3.2l-0.5,5.2c-1.4,6.4-6.4,9.1-10.5,11.2
				c-0.2,0.1-4,1.8-4.2,1.9c2.5-0.2,8.8-1.7,11.4-1.7c6.8,0,16.5,0.1,17.3-2.9l1.9-3.8l0.8,4.2c0,2.6-2.2,9.4-8.4,13.8
				c2.3,0,5.3-0.1,8.3-0.3c2.9-0.2,5.8-0.6,7.8-1c1.1-0.2,5.4-1.9,6.2-2.2c0,1.2-1,5.8-1.8,7.4c-0.9,1.8-2.2,3-3.4,3.8
				c3-0.6,6.9-1.1,10.2-0.1c1.2,0.3,3.1,3,3.8,5.1c0.3,0.9-3.4-2.4-4.3-2.8c-3.9-1.6-10-1.4-12.6-0.8l-3,0.5c0,0,6.8-5.7,7.6-9.5
				c-0.6,0.3-1.3,0.7-2.1,1l0,0c-4.6,1.8-11,2.8-15.2,2.8c-5.1,0-9.1-0.3-9.4-0.3l-5-0.7l6.5-1.5c7.7-1.3,9.1-6.4,10.2-10.2
				c-3.8,1.5-9.5,1.5-15.3,1.5c-5.1,0-10.4,0.1-14.1,1.1l-4.9,1.1l3.4-3.8c3-1.6,7.1-3.5,8.4-4.8c1.8-1.8,2.6-3.6,4.2-5.3
				c-0.2,0-0.4,0-0.5,0c-2.2,0-3.8-2.8-5.9-3.5c-4.5-1.7-10.1-1.7-18.8,2.6l-4.5,2.1l1.7-4.5c2.8-7.8,5.9-16.5,13.5-20
				c-1.5-0.8-2.9-1.8-4-2.7c-1.2-0.7-2.7-1.5-4.2-2.4s-2.1,0.1-3.8,0.7c-1.3,0.4-2.9,1.1-5,1.5s-5.9-0.8-8.1-0.6
				c-1,0.1-3.2-0.4-3.2,0.6l1.5,1.4v0.7c0.1,1-1.5,5.2-2.4,5.8c-4.7,2.9-11.3,1.6-18.2,1.6c-0.3,0-5.5-1.1-5.8-1.1
				c0.1,0.2,3.4,4.3,3.5,4.5c0.7,1.8,2,2.4,5,3c0.9,0.2,2.3,0.8,3.6,1.6s2.5,1.8,2.9,2.7l1.4,2.2c-2.4-1.3-11.3,0.7-20,0.7
				c-0.3,0-4.2,0.2-4.6,0.2c0.2,0.2,3.9,1.8,4.1,2c2.4,2.6,5.4,2.6,6.9,3c1.7,0.5,5.8,4.1,6.5,5.8h-2.8c-1.1,0.5-3.3,0-4.2,0
				c-1.4,0-2.6-0.4-3.8-1.1c4.2,27,54.6,48.4,116,48.6c1.7-1.7,4.5-5.6,5.4-11.5c3.4-6,8.6-7,13.4-7c5.4,0,12.8-1.3,15.8,0
				c1.3,0.6-1,0.8-2.3,2.4C283.7,230.2,281.1,232.6,281,232.6z M316.4,328.7c2.9-3.1,1.4-7.9-0.8-10.8l-3-2.2c-1-0.7-2-1.5-3-2.2
				c-8.4-6.1-16.6-12.5-14-24.4c0,0,0,0,0-0.1c0.2-4.4,0.2-8-3.1-12.8c-0.1-0.1-0.3-0.6-0.9-1.1c-0.4-0.4-1.9-0.8-2.4-1
				c-6.2-2.7-11.4-0.1-16.9-9.8l-1.4-4.6l-0.7-4.7c-0.6,4.8,0.3,9.4,3.5,14.1c5,7.1,4.3,16.8-0.3,26.8l0,0c-0.6,1.5,2.6,4.3,3,4.8
				c-0.1-0.4-1.3-3.9-1.4-4.3c0-8.7,5.7-11.8,6-12l3.3-2.5l-0.4,4.3c-0.7,15.2,5.2,24,16.2,26.5
				C307.1,314.2,315.4,320.9,316.4,328.7z M313.8,205.6c0.3-0.1,0.2-0.5,0.1-0.7l-0.1-0.2c-2.8-3.8-12.7-8.4-17.1-11.6
				c1.7,3.9,8.6,8.9,11.1,11.1c1.5,1.3,3.8,2,4.9,3.3C313.5,206.4,313.5,206.4,313.8,205.6z M300.6,151.4c3.6-6.2,5.6-19.1,2.7-25.4
				c-0.2,1.1-2.1,5.1-2.9,5.8c-1.5,1.3-3,2.6-3.3,4.1H297C297.9,141.1,299.1,146.7,300.6,151.4z M301.5,162.3c-2-2.5-3.7-6.4-5-10.7
				c-3.1,0.6-6.3,0.9-9.5,0.9c-7.2-0.4-14.7-1.4-23.6-3.6c-17.5-2.9-33.3-7.9-47.9-11.5c-0.1,1.1-0.8,2.2-9.2,4
				c-2.7,0.6-7.7,1.5-12.9,1.8c4.5,3.9,23.5,8.2,54.2,11.4C273,157.3,294,161.8,301.5,162.3z M297.5,185.5c0.1-1.1-0.2-1.8-0.7-2.3
				c-1.1,0-2.4,0.1-3.7,0.1c0.3,1.4,1.2,4.2,2.2,6C295.6,188.1,297.3,187.6,297.5,185.5z M294.5,143.5c-1.8-9.2-2.5-18.2-2.6-19.9
				c-1.8-7.5-6.6-12-8.7-14l1.4-1.5l-1.4,1.4c-3.6-3.7-16.6-2.7-23.9-1.3l0,0c-0.3,0-0.8,0.1-1.1,0.1c-4.1,0-8.3-3.2-9.5-4.7
				c-8.1-9-23.6-12.2-25.3-12.5c-8.2,0-13.2,6.2-17.8,13.5c6.2,3.8,11.2,12.2,16,19.6l0.3,3c-5.2-7.8-13.5-17.1-19.6-19.8
				c5.1,5.7,6.9,12.2,8.5,17.9c1.1,4.1,2.1,7.7,4.1,10.3c14.3,3.3,18,5.2,36.7,8.3l12.7,2.2C281.6,148.1,287,144.8,294.5,143.5z
				 M289.2,268.9c0.1-0.3-1.1-1.2-1.3-1.5c-0.4-0.6-0.8-1.1-1.2-1.7c-0.1-0.1-0.2-0.2-0.4-0.2c-0.4,0-0.9,0.1-1.3,0.1
				c-0.8,0.1-1.8,0.1-2.8,0.1c-0.9,0-5.5-1.5-6.3-1.6C278.3,265.6,288.1,271.7,289.2,268.9z M286.4,265.2c-0.1-0.1-0.1-0.2-0.2-0.3
				l0,0C286.2,265.1,286.3,265.2,286.4,265.2z M282.6,261.8c0.4,0,0.5-0.4,0.3-0.7c-0.1-0.1-0.3-0.3-0.4-0.5
				c-0.4,0.5-0.8,0.9-1.1,1.1C281.8,261.8,282.2,261.9,282.6,261.8z M284,315.8c-2.4-8.2-4.2-10.7-6.4-12l-0.8-0.5
				c0-0.1-0.4-0.2-0.4-0.3c-0.7-0.4-1.4-0.6-2-0.8c-1.7-0.6-2.5-2.7-3.5-5.8c-0.5-5.6-5.4-10.4-11.7-13.6l-1.1-0.8
				c-0.1-0.5-2.5-1.3-3.5-1.4c-4.8-1.7-7.4-4.6-9.5-9.4c-1,1.1-3,1.2-3.7,3.3v0.7c-2.3-3.2-13.2-6.2-26.2-9.4
				c5.1,5.9,8.6,14,5.6,31.6c0.2-0.1,0.4-0.1,0.6-0.2c11.9-3.8,36.7-2.4,53.9,7.2l5.4,3.8c-6.4-3.5-16.6-6.6-27.2-8.1
				c3.4,3.1,4.8,5.9,4.9,8.2C264,308.5,275.2,310.3,284,315.8z M279,260.2c0.6-0.7,0.8-1.8,0.9-2.5c-2.1-2.5-4.3-5-6.4-6.8
				c-0.3-0.2-0.9,3.3-0.9,3.7c0.4,4.1,0.9,6.6,2.6,8.9c0.2,0.3,1-0.9,1.1-1l2-1.6h0.1C278.9,260.5,279,260.2,279,260.2z
				 M272.3,293.7c2.6-6.4,1.3-12-0.5-17.8c-3.8-0.8-6.3-4.8-8.9-9.1c-0.9-1.4-1.8-2.9-2.7-4.2c-0.1,0.1-0.2,0.1-0.4,0.2
				c-0.5,0.2-1.6,0.8-2.8,1c0.1,12,1.1,16.2,2.2,16.6l1.4,0.6c0.4,0,0.8,0,1.2-0.1C268.4,279.6,271.2,286.8,272.3,293.7z M269.6,269
				c-1.4-4.5-2.7-9.2-2.8-14c0,0,0,0,0,0.1c-0.8,4.2,0.1,6.1-1.4,6.6l-3.4-4.9l0.4,1.9c0.1,0.6,0.1,1.2-0.1,1.7
				c-0.7,1.8,2.9,3.3,3.9,4.3C267.6,266.1,268.7,267.7,269.6,269z M265,187.1h0.4c-0.3-0.1-0.7-0.2-1-0.3
				C264.6,186.9,264.8,187,265,187.1z M265.1,257.2c-0.3-4.8,0.8-8,1.9-10.2c-2.9-3-5.7-6-8.4-9.1c-0.8,3.9-2.1,8.3-4.1,10.7
				c0.4,1.3,1.8,2.1,4.5,3.3C260.5,252.6,263.8,256.1,265.1,257.2z M259.8,259.9c-0.1-0.5-1.4-3.4-1.6-3.8c-0.8,0.5-2,2.3-2.8,2.6
				c-0.2,0.1-1.8-0.1-2,0c0.3,0.3,2.3,2.2,2.8,2.5C256.7,261.2,259.2,260.3,259.8,259.9z M254.7,256.1c0.3-0.1,3.1-2.3,3.4-2.4
				c-0.5-0.2-3-1.4-3.4-1.7c-0.1,0.5-1.7,3.6-1.8,4C253.2,256,254.5,256.2,254.7,256.1z M254.7,279.1c-1.3-3.5-1.7-9.1-1.8-16.5
				c-0.6-0.5-1.3-1.1-1.8-2c-1,2-2.1,3.9-3.2,5.7c-0.1,0.1-0.1,0.2-0.1,0.3v0.5C247.8,270.5,250.9,276.2,254.7,279.1z M246.4,265.2
				c2.4-4,3.7-9.7,4-15.5c-30.7-3.4-60.7-2.8-82.9-13c-20.7-9.4-30.7-28.5-35.9-41.7c-3.3,6.8-5.5,16.7-5.8,23.7
				c6.2,21.6,51,31.8,82.7,39.3c21,5,28.7,9.5,32.2,14.3l0.4,0.7c0.3-1.6,1.7-3.1,3.2-4.9c0.4-0.5,0.1-0.3,0.7-0.8l0.6-0.9
				C245.9,266.1,246.2,265.7,246.4,265.2z M213.6,137.1h0.6c-0.1,0-0.3-0.1-0.4-0.1L213.6,137.1z M210.6,136.3L210.6,136.3
				c-1.7-2.9-2.6-6.3-3.6-9.9c-2.1-7.6-3.1-16-13.4-21.7c-0.1,1.1-0.5,2.4-1.3,3.9c-3.5,7-3.7,20.7,0,30.6
				C199.4,139,207.1,137.3,210.6,136.3z M186.8,128.9c0-1.8,0.1-3.5,0.3-5.2c-5.6-5.1-11.3-10.8-16.4-15.5l-2.4-2h-0.1
				c-0.3-0.1-0.8,0-1.4,0.4c-4.3,2.5-8.5,12.7-7.8,18.3c0.1,0.5,0.3,0.9,0.6,1.2c1.9,1.8,3.2,3,5,5.2c2.3,2.7,4.8,5.5,7.6,8.2
				c0.3,0.3,0.5,0.6,0.5,0.9c0.2,0,0.4-0.1,0.6-0.1c4.2-0.6,9.4-1,14.9-1.1C187.1,135.9,186.8,132.4,186.8,128.9z M163.2,104.3
				l-61.4-58.9L99.6,48l60.8,59.4C161.3,106.2,162.2,105.1,163.2,104.3z M158.3,110.9l-45.6-46.4l-2.9,3.8l46.4,47.6
				C156.8,114.2,157.5,112.5,158.3,110.9z M113,50.3l4.7-4.9l-0.4-0.4l-4.7,4.9L113,50.3z"/>
			<path class="st2" d="M372.5,225c-3-0.2-6.8-0.9-9.5-1.7C365.9,223.5,369.6,224.2,372.5,225z M357.5,238.3L357.5,238.3v1.7V238.3
				c-1.1,0.1-3.7,0.9-5,0.7c-42.5-5.5-50-10.6-51.1-12.1c0,0,0.1,0.2,0.1,0.4h-4c0,3.6,4.2,7.4,55.2,14c1.8,0.2,3.3,0.4,4,0.6
				c1.5,0.7,6.7,2.8,11.7,2.8c1.7,0,3.3-0.2,4.8-0.8c1.1-0.2,1.7-1.2,2.5-2.4c0.7-1.1,6.2-10,5.3-15c-0.1-0.3-0.2-0.5-0.4-0.6
				c0-0.2,0-0.4,0-0.6l-0.7,0.1l0.6-0.3c-2.1-4.4-18.8-7.1-22.7-5.3c-1.4,0.7-2.1,2-1.6,3.4c-0.1,2.3,0.5,6.1,1.3,8.8
				c-0.5-0.2-1.1-0.3-2.1-0.4c-27.2-1.7-50.8-6.1-52.7-8.3c0,0.1,0.2,0.3,0.2,0.6l-4,0.1c0.1,1.6,1.2,1.6,20.6,4.9
				c10.3,1.7,26.1,4.5,39,5.4l0,0l2.5,0.1c0.1,0,0.1,0,0.2,0l-0.3-0.2l0,0c-0.3-0.8-0.9-2.5-0.9-2.5c-0.3-0.9-0.5-3.6-0.6-5.7
				c3.9,1.9,10.2,2.9,14.7,2.9c1.9,0,3.4-0.2,4.3-0.5c0.1,2.8-4.8,11.5-6.3,13.1c-0.2-0.1-0.2,0,0,0c-3.7,1.6-10.2-1.4-12.9-2.7
				c-0.1-0.3-0.4-0.4-0.8-0.4c-0.1,0-0.1-0.1-0.2-0.1v0.1c-0.2,0-0.4,0-0.6-0.1C357.8,238.3,357.6,238.3,357.5,238.3L357.5,238.3z"
				/>
			<path class="st0" d="M361.1,234.5h0.2C361.3,234.8,361.3,234.8,361.1,234.5z"/>
			<path class="st1" d="M363.1,223.3c2.8,0.2,6.5,0.9,9.5,1.7C369.5,224.8,365.7,224.1,363.1,223.3z"/>
			<path class="st0" d="M357.5,238.1v0.2l0,0V238.1L357.5,238.1z"/>
			<path class="st1" d="M342.5,173.7C342.5,173.7,342.5,173.8,342.5,173.7c-3.1,2.4-22.6,4.7-41.6,5.4V179
				c-12.9,1.4-94.1-2.5-112.2-17.6l-0.4-0.2c-11.5-6.2-19.4-12.9-20.2-15.1c0,0,0.1-0.1,0-0.1c1.1-0.9,8.6-2.4,21-2.6
				c0.1,0.3,0.3,0.6,0.6,0.8c5.1,5.3,43.5,12.1,59.7,14.9c13.4,2.2,27,4.2,37.4,5.4c8.1,0.9,12.7,1.2,15.4,1.2
				c3.3,0,3.8-0.5,4.3-0.9c0.8-0.7,1-1.7,0.5-2.6C320.3,165.4,339,171.8,342.5,173.7z"/>
			<path class="st1" d="M357.6,238.1L357.6,238.1L357.6,238.1"/>
			<path class="st1" d="M357.2,238.1c0,0,0.1,0,0.3,0"/>
			<path class="st1" d="M309.2,212.5C309.2,212.5,309.2,212.4,309.2,212.5"/>
			<line class="st1" x1="281" y1="232.5" x2="281" y2="232.6"/>
			<line class="st1" x1="237.9" y1="212.8" x2="239.7" y2="213.7"/>
			<line class="st1" x1="235.9" y1="210.9" x2="236.2" y2="211.9"/>
			<line class="st1" x1="235.9" y1="210.9" x2="235.9" y2="210.9"/>
			<line class="st1" x1="235.8" y1="210.5" x2="235.9" y2="210.9"/>
			<line class="st1" x1="190.7" y1="99.9" x2="190.7" y2="100"/>
			<line class="st1" x1="190.6" y1="99.8" x2="190.6" y2="99.7"/>
			<line class="st1" x1="190.6" y1="99.6" x2="190.6" y2="99.7"/>
			<path class="st1" d="M168,145.9L168,145.9"/>
		</g>
	</g>
	<g id="Layer_3">
	</g>
	<g id="Layer_8">
		<g>
			<path class="st3" d="M123.9,222c13.4,25,62.2,36.9,83.4,42.1c12.2,10.6,10.5,25,8.8,37.2c7.8-1.8,27.5-1.6,35.7-1.3
				c5,8.1-2.9,11-0.5,11.8c9.9,1,22.7,0.1,36.6,9.6c10.3,14.8,11,19.6,16.6,21.6c4.6,13.8-9.8,51.9-20.3,59.3
				c-3.4,7.3,19.7-68.9-82.9-88.6c-46-6.5-77.2-52.3-78.5-75.2c8.3,6.5,9,8.5,14.9,12.4c-1-2.1-5.2-5.8-10.1-11.8
				C124.1,231.3,123.9,222,123.9,222z"/>
			<path class="st4" d="M255.1,300.8c0,0,18.7,2.7,26.2,7.5c2,6.2,1.9,6.5,1.9,6.5s-11.9-6-24.2-7
				C257.7,305.2,257.9,304.1,255.1,300.8z"/>
			<path class="st5" d="M124.1,223.3c16.4,25.2,65.7,37.3,83.3,40c14.2,15.3,8.9,27,8.8,37.2c8.4,0,19.6-1.5,35.8-1.3
				c0.9,2.6,2.4,7.4-1.6,12.3c-1.6,1.4,18.7-1.7,36.9,10.2c8.4,7.2,9.8,19.6,16.3,21.5c3.5,16.9-9.5,48.7-19.2,58.2
				c3.6-7.7,13.7-26.4,13.4-48.5c-1.7-11.8-25.9-31.2-51.4-35.5c-25.4-4.3-57.8-19-54.5-42.2C184.6,263.1,127.7,254.6,124.1,223.3z"
				/>
			<path class="st6" d="M123.3,220.5c6.3,16.2,38.8,34.5,84.1,42.7c13.8,14,10.7,25.7,9.7,36.2c5,0.3,21.1-0.2,35.3-1.1
				c1.5,2.7,1.5,8.1-1,13.4c0.8,0.2,36-2.2,43.2,19.8c3.5,2.7,2.1,8.2,9.9,11.3c4,5.4-5.4,38.8-10.5,43.6c1-9.2,7.7-25.8,7.3-35.1
				c-1.3-7.9-6.1-13.1-16.6-23.4c-10.4-10.3-20.2-10.8-34.9-13.5c-15.3-2.2-23.9-4.1-36.9-9.9c-7.6-9.7-4.5-15.3-11.6-27.4
				c-6.7-12.8-32.3-20-44.5-25.2C133.3,245.3,123.3,220.5,123.3,220.5z"/>
			<path class="st4" d="M216.6,266.6c2.2,1,22.6,4,25.3,10.1c0.1-3.2-0.4-2.4,3.1-4.7c2.1,3.8,4.5,7,11.6,9.6
				c5.9,2.6,13.8,8.3,13.8,14.9c1.8,3.1,1.7,4.4,3.1,5.7c2,0.8,4.7,1.3,6.5,4.8c0,0-24.1-16.8-58.5-10.3
				C225,278,219.3,270.4,216.6,266.6z"/>
			<path class="st4" d="M270.7,261.6c0,0,0.4,2.7,2,5c1.6,2.2,2.7,4.5,3.2,5.2c2.8,5.9,1.3,13.5,0.8,16.2c1-2.3,5.2-5,7.9-7.1
				c0-3.5,2.3-5.2,4.2-5.5c-0.5-1-0.6-0.4-0.5-1.5c-3.6-1.3-12.9-0.6-16.8-11.7C271,261.9,270.7,261.6,270.7,261.6z"/>
			<path class="st7" d="M257.4,264.2c0.4-0.1,0.7-0.1,2.6-0.9c1.1,1.4,7,12.8,11.4,13c1.4,3.5,3,10.6,1,15.6
				c-0.7-0.3-2-13.8-11.7-11.1c-1.1,0.1-2.8-1.1-2.3-2.6C257.7,276.6,257,266,257.4,264.2z"/>
			<path class="st7" d="M254.4,259.2c1.3,1.1,1.3,0.9,1.8,1.5c1.5-0.2,2.8-0.7,3-0.9c-0.1-0.6-0.4-1.9-1.2-2.9
				C257.6,257.2,254.4,259.2,254.4,259.2z"/>
			<path class="st8" d="M263,259c0,0,1.9,2.8,2.2,3.2c1.2-0.1,1.6-1.5,1.6-2c-0.1-0.5,1.4,5.5,1.5,6c-0.1,0.2-0.8-1.4-3.8-3.4
				c-1.9-1.1-1.7-1.8-1.7-2C263,260.5,263,259,263,259z"/>
			<path class="st8" d="M251.1,261.6c-1.4,2.4-1.9,3.8-2.8,5c-0.6,3.3,3.8,10.5,5.3,10.9c-0.6-3.4-1.3-12.6-1.1-14.6
				C251.6,261.9,251.1,261.6,251.1,261.6z"/>
			<path class="st8" d="M254.9,252.7c0,0-1.1,2.5-1.3,2.9c0.6,0.1,0.6,0.1,1,0.1c0.6-0.3,2-1.5,2.6-1.9
				C256.8,253.4,254.9,252.7,254.9,252.7z"/>
			<g>
				<path class="st1" d="M258.6,273.7c0.8-2.9,3.7-3.4,4.3-3.2c0.6,0.1,1.1,0.2,1.9,0.9c0.8,0.7,0.7,2.3,0.3,2.7
					c-0.4,0.4-0.6,1.3-0.4,1.5s1.1,0.3,1.9,0.3s1.3-0.1,1.7,0.4c0.1,0.1,0.4,0.5-0.2,1.4c-0.6,0.5-1,1-2.2,1.4
					c-1.1,0.3-1.4,0.3-2.3,0c-0.5-0.2-0.4-0.7-0.9-1.1c-0.1,0-1.3-0.4-2.1,0c-0.8,0.4-1.9-1.1-2.1-2S258.6,273.7,258.6,273.7z"/>
				<path class="st9" d="M260.7,274.5c-0.4-0.1-0.7,0-1,0.4c-0.2,0.4-0.2,0.9-0.1,1.1c0.2,0.2,0.5,0.5,0.9,0.5
					c0.5,0,0.7-0.2,0.9-0.6c0.2-0.4,0.2-0.8-0.1-1.2C261.1,274.5,260.7,274.5,260.7,274.5z"/>
				<path class="st9" d="M263,272.5c-0.4,0.4-0.4,0.6-0.4,0.8c-0.1,0.2,0.1,0.6,0.2,0.7s0.4,0.3,0.7,0.3c0.3,0,0.8-0.1,0.9-0.6
					s0.1-0.7,0-1c-0.2-0.3-0.3-0.2-0.6-0.4C263.4,272.3,263,272.5,263,272.5z"/>
				<path class="st9" d="M262.6,275.2c-0.1,0.1-0.1,0.2-0.1,0.3c0,0.2,0,0.6,0,0.7s0.1,0.2,0.2,0.3c0.1,0.1,0.3,0.1,0.7-0.3
					c0.4-0.3,0.4-0.4,0.5-0.6c0.1-0.3-0.3-0.3-0.7-0.4C262.9,275.1,262.6,275.2,262.6,275.2z"/>
				<path class="st10" d="M264,278c0.8-0.8,1.1-1.3,1.6-1.6"/>
				<line class="st10" x1="264" y1="277.1" x2="264.9" y2="278"/>
				<line class="st10" x1="264.4" y1="276.8" x2="265.4" y2="277.5"/>
				<line class="st10" x1="264.7" y1="276.5" x2="265.7" y2="277"/>
			</g>
		</g>
	</g>
</g>
<g id="Layer_4">
</g>
<g id="Layer_2">
	<path class="st6" d="M289.7,274.8c1.9,2.1,3.3,3.5,3.8,4.1c-0.5-0.2-1.2-0.6-2.5-1c-1.6-0.4-4.8,0.5-6,3.1
		c-1.2,2.4-4.4,26.3,14.6,31c0,0,0.7,0.2,1.5,0.3c4.4,1.2,12.8,5.9,15.6,15.1c0.9-0.6,1.8-4.7-1.4-9.3c-2.4-1.7-10.8-7.1-16-12.9
		c-2.1-2.4-3.2-4.9-4-7.2c-0.9-3.8-0.7-6.8-0.2-9c0.2-2.4,0.5-7.6-2.5-11.9C291.9,276.3,291.6,275.1,289.7,274.8z"/>
</g>
<g id="súng">
	<linearGradient id="SVGID_1_" gradientUnits="userSpaceOnUse" x1="260.17" y1="287.3513" x2="378.7813" y2="287.3513">
		<stop  offset="0" style="stop-color:#5C1600"/>
		<stop  offset="1" style="stop-color:#E0CA1A"/>
	</linearGradient>
	<path class="st11" d="M260.2,235.2c0,0,3.1-4.3,5.2-4.9c3.7-1,4.6,0,8.6-0.9c3.5-0.7,7.3-1.1,9-1.3c-0.8,0.8-2,2.1-3.3,3.7
		c-1.3,1.1-2.2,2-3.9,2.2c-1,1.5,6.2,2.8,11.3,3c-0.5,0.9-2.9,7.5-3.8,8.3c-0.7,2.3,10.1-3.4,13.8-7c0.5,1.5,0.8,2.3,0.8,2.3
		c-0.1,2.3-0.1,1.2-0.2,2.8c0.4-0.8,7.1-5,4.5-11.2c3.2,1.2,6.9,2.2,6.9,2.2s2.5,3,3.6,6.6c2.1,2.8,6.5,7.7,8.1,10.3
		c-2.2,2-3.3,7.5,0.1,12.8c-2.1,1.8-1.7,8.3,4.9,8c9.2-2.2,4.1-10.4-1.1-9.6c0-1.7-0.5-4.7,1.9-7c0.2-0.3,2.4,5.4,7.3-0.9
		c3.1,2,5.9,6.3,4.5,8.7c-0.4,5.1-4.5,6.7-2.2,14.7c1.7,5.8,17.9,18.7,33.1,26.3c-3.1-0.1-14.8-3.4-28.7,2.2
		c-7.3,1.3-7.3-8.7-4.1-10.2c2.1-2.6,5.3-0.9,4.6,1.4c-0.7,2.3-4.7,3.8-6,5c2.2-1,9.3-2.8,8.6-6.4c0.4-1.5-2.8-7-8.9-4.5
		c-0.9,0-6.6,4.2-4.5,9.8c0.1,1.9,3,8.6,10.4,7.9c7.8-2.6,11-6.7,24.9-2.7c5.7,2.1,7.1,1.9,7.3,2.4c0.5,2.9-4.3-1.7-11.7,2.3
		c-2.3,1.9-5.9,6.6-3.4,11.5c0.7,1.3,3.6,5.6,8.3,4.5c3.8-1.3,5.8-8.3,7.2-10.8c-1.4,2.5-7,7.6-8.7,7.5c-3.1-0.2-5.8-4.4-1.7-9.5
		c7.4-4.6,11.1-2.3,14.2,0.3c4.8,5.3-3.5,19.8-8.8,25.5c-1.9,2-3.5,4.3-6.2,6.1c-1.7-1.4-64.9-44-64.2-48.5
		c-1.5-4.4-1.6-5.1-1.3-12.9c1.2-0.2-1.5-17.2-8.3-23c-2.5-3.2-8.7-11.1-16.3-17.5C264.7,240,260.2,235.2,260.2,235.2z"/>
	<linearGradient id="SVGID_2_" gradientUnits="userSpaceOnUse" x1="159.2635" y1="123.375" x2="187.765" y2="123.375">
		<stop  offset="0" style="stop-color:#E0CA1A"/>
		<stop  offset="1" style="stop-color:#000000"/>
	</linearGradient>
	<path class="st12" d="M168.2,106.7c-5.3,0.7-9.7,12.6-8.8,18.8c1.5,2.1,12.2,12.8,13.6,14.5c4.9-0.3,10.7-1.4,14.8-1
		c-0.6-2.2-2.1-8-1.1-15.1C183.3,120.6,168.2,106.7,168.2,106.7z"/>
	<linearGradient id="SVGID_3_" gradientUnits="userSpaceOnUse" x1="99.8964" y1="76.3204" x2="162.8384" y2="76.3204">
		<stop  offset="0" style="stop-color:#FFFFFF"/>
		<stop  offset="1" style="stop-color:#000000"/>
	</linearGradient>
	<path class="st13" d="M99.9,48.3l2-2.4l60.9,58c0,0-2.4,2.5-2.5,2.8S99.9,48.3,99.9,48.3z"/>
	<linearGradient id="SVGID_4_" gradientUnits="userSpaceOnUse" x1="110.0895" y1="90.1482" x2="158.1244" y2="90.1482">
		<stop  offset="0" style="stop-color:#FFFFFF"/>
		<stop  offset="1" style="stop-color:#000000"/>
	</linearGradient>
	<polygon class="st14" points="112.9,64.8 110.1,68.6 155.8,115.4 158.1,111.3 	"/>
	<linearGradient id="SVGID_5_" gradientUnits="userSpaceOnUse" x1="365.3522" y1="355.6035" x2="391.6928" y2="316.5519">
		<stop  offset="0.148" style="stop-color:#6B6B6B"/>
		<stop  offset="0.243" style="stop-color:#7C5119"/>
		<stop  offset="0.3492" style="stop-color:#E8FF00"/>
		<stop  offset="0.6508" style="stop-color:#060606"/>
		<stop  offset="0.7764" style="stop-color:#939707"/>
		<stop  offset="0.8631" style="stop-color:#F1F708"/>
		<stop  offset="0.9493" style="stop-color:#D1900B"/>
		<stop  offset="1" style="stop-color:#BF580C"/>
	</linearGradient>
	<path class="st15" d="M366.2,349.2l7.8,5.6c0,0,27.6-13.5,36-31.7c1.5-1.6-13.7-8.1-26.9-12.5c2.7,3.7,5,5.3,7.3,8.1
		c-2.7-2.1-11.7-8.4-17.1-9.5c-0.7,0.8,0,1,0,1s2,0.6,2.8,1.2C388.5,319,378.8,338.9,366.2,349.2z"/>
	<linearGradient id="SVGID_6_" gradientUnits="userSpaceOnUse" x1="318.1083" y1="246.8353" x2="325.5778" y2="240.1097">
		<stop  offset="6.424581e-02" style="stop-color:#6B6B6B"/>
		<stop  offset="7.316837e-02" style="stop-color:#706454"/>
		<stop  offset="8.464875e-02" style="stop-color:#745D3E"/>
		<stop  offset="9.821374e-02" style="stop-color:#78572D"/>
		<stop  offset="0.115" style="stop-color:#7A5422"/>
		<stop  offset="0.1385" style="stop-color:#7C521B"/>
		<stop  offset="0.2039" style="stop-color:#7C5119"/>
		<stop  offset="0.2061" style="stop-color:#886416"/>
		<stop  offset="0.2109" style="stop-color:#9E8811"/>
		<stop  offset="0.2163" style="stop-color:#B2A80C"/>
		<stop  offset="0.2224" style="stop-color:#C3C409"/>
		<stop  offset="0.2292" style="stop-color:#D1DA05"/>
		<stop  offset="0.2371" style="stop-color:#DBEB03"/>
		<stop  offset="0.2469" style="stop-color:#E3F601"/>
		<stop  offset="0.2607" style="stop-color:#E7FD00"/>
		<stop  offset="0.2989" style="stop-color:#E8FF00"/>
		<stop  offset="0.3455" style="stop-color:#E5FC00"/>
		<stop  offset="0.3855" style="stop-color:#DBF100"/>
		<stop  offset="0.4231" style="stop-color:#CBDF01"/>
		<stop  offset="0.4592" style="stop-color:#B5C601"/>
		<stop  offset="0.4943" style="stop-color:#97A602"/>
		<stop  offset="0.5286" style="stop-color:#747F03"/>
		<stop  offset="0.5622" style="stop-color:#495004"/>
		<stop  offset="0.5945" style="stop-color:#191B05"/>
		<stop  offset="0.6061" style="stop-color:#060606"/>
		<stop  offset="0.6464" style="stop-color:#090806"/>
		<stop  offset="0.6816" style="stop-color:#140C06"/>
		<stop  offset="0.7149" style="stop-color:#261407"/>
		<stop  offset="0.747" style="stop-color:#3F1F08"/>
		<stop  offset="0.7783" style="stop-color:#602E09"/>
		<stop  offset="0.809" style="stop-color:#88400A"/>
		<stop  offset="0.8386" style="stop-color:#B6540C"/>
		<stop  offset="0.8436" style="stop-color:#BF580C"/>
		<stop  offset="0.919" style="stop-color:#F1F708"/>
	</linearGradient>
	<path class="st16" d="M309.7,234.7c0,0,3,3.3,5.3,5.8c0.8,1,6.2,8.2,6.5,8.6c0.3,0.4,0,0.7,0,1.5c0,0.8,2.8-2.1,4.7-2.4
		c1.9-0.3,2.4,1,2.5,1.9s-0.3,3.2-1.7,4.8c-1.2,1.1,3.7,0.7,4.4-0.4c1.3-1.1,1.7-2.9,1.9-4.7c0.2-1.7-3.2-4.2-5.2-5.8
		c-2-1.6-7.4-6.4-9.3-7.3S309.7,234.7,309.7,234.7z"/>
	<path class="st17" d="M326.7,250.2c-3.3-0.2-6.5,5.1-6.2,6.2c-0.7,1.7,2.1,6.9,2.7,8.4s-1.3-7,0.2-9.1
		C324.5,253.4,327,252.3,326.7,250.2"/>
	<radialGradient id="SVGID_7_" cx="325.4176" cy="267.6261" r="3.1865" gradientUnits="userSpaceOnUse">
		<stop  offset="0" style="stop-color:#BF580C"/>
		<stop  offset="0.2278" style="stop-color:#BF5A0C"/>
		<stop  offset="0.3098" style="stop-color:#C1610B"/>
		<stop  offset="0.3683" style="stop-color:#C46C0B"/>
		<stop  offset="0.4156" style="stop-color:#C87D09"/>
		<stop  offset="0.4562" style="stop-color:#CE9308"/>
		<stop  offset="0.492" style="stop-color:#D4AF06"/>
		<stop  offset="0.5245" style="stop-color:#DCCF03"/>
		<stop  offset="0.5533" style="stop-color:#E5F301"/>
		<stop  offset="0.5615" style="stop-color:#E8FF00"/>
		<stop  offset="0.7545" style="stop-color:#F0F807"/>
		<stop  offset="0.7737" style="stop-color:#F1F708"/>
		<stop  offset="0.7884" style="stop-color:#D4D908"/>
		<stop  offset="0.8187" style="stop-color:#9EA207"/>
		<stop  offset="0.8493" style="stop-color:#707207"/>
		<stop  offset="0.8794" style="stop-color:#4A4B07"/>
		<stop  offset="0.909" style="stop-color:#2C2D06"/>
		<stop  offset="0.9379" style="stop-color:#171706"/>
		<stop  offset="0.9658" style="stop-color:#0A0A06"/>
		<stop  offset="0.9916" style="stop-color:#060606"/>
	</radialGradient>
	<ellipse class="st18" cx="325.4" cy="267.6" rx="3.3" ry="3"/>
</g>
<g id="cổ_áo">
	<linearGradient id="SVGID_8_" gradientUnits="userSpaceOnUse" x1="125.8" y1="234.1979" x2="250.4" y2="234.1979">
		<stop  offset="7.541899e-02" style="stop-color:#F1F708"/>
		<stop  offset="7.929210e-02" style="stop-color:#F0F308"/>
		<stop  offset="0.1298" style="stop-color:#E1C409"/>
		<stop  offset="0.1804" style="stop-color:#D59D0A"/>
		<stop  offset="0.23" style="stop-color:#CB7F0B"/>
		<stop  offset="0.2785" style="stop-color:#C4690C"/>
		<stop  offset="0.3253" style="stop-color:#C05C0C"/>
		<stop  offset="0.3687" style="stop-color:#BF580C"/>
		<stop  offset="0.5829" style="stop-color:#BF5A0C"/>
		<stop  offset="0.66" style="stop-color:#C1610B"/>
		<stop  offset="0.7151" style="stop-color:#C46C0B"/>
		<stop  offset="0.7595" style="stop-color:#C87D09"/>
		<stop  offset="0.7976" style="stop-color:#CE9308"/>
		<stop  offset="0.8314" style="stop-color:#D4AF06"/>
		<stop  offset="0.8619" style="stop-color:#DCCF03"/>
		<stop  offset="0.889" style="stop-color:#E5F301"/>
		<stop  offset="0.8966" style="stop-color:#E8FF00"/>
		<stop  offset="0.9049" style="stop-color:#E1F700"/>
		<stop  offset="0.9177" style="stop-color:#CDE101"/>
		<stop  offset="0.9335" style="stop-color:#ADBE02"/>
		<stop  offset="0.9515" style="stop-color:#808C03"/>
		<stop  offset="0.9715" style="stop-color:#474D04"/>
		<stop  offset="0.9916" style="stop-color:#060606"/>
	</linearGradient>
	<path class="st19" d="M131.5,196.1c24,56.6,73.3,47.6,118.9,53.7c-1.7,17.5-6.9,17.6-9.7,22.5c-6.2-12.9-57.8-18.4-81.6-28.1
		c-24.2-9.5-30.3-18.5-33.3-25.5C126.6,206.9,131.5,196.1,131.5,196.1z"/>
	<linearGradient id="SVGID_9_" gradientUnits="userSpaceOnUse" x1="258.1339" y1="251.7511" x2="264.7406" y2="243.8775">
		<stop  offset="3.072626e-02" style="stop-color:#F1F708"/>
		<stop  offset="0.1648" style="stop-color:#E8FF00"/>
		<stop  offset="0.2093" style="stop-color:#E5F501"/>
		<stop  offset="0.2858" style="stop-color:#DFD903"/>
		<stop  offset="0.385" style="stop-color:#D4AC06"/>
		<stop  offset="0.5018" style="stop-color:#C56F0A"/>
		<stop  offset="0.5419" style="stop-color:#BF580C"/>
		<stop  offset="0.5737" style="stop-color:#B8550C"/>
		<stop  offset="0.6189" style="stop-color:#A64D0B"/>
		<stop  offset="0.6722" style="stop-color:#873F0A"/>
		<stop  offset="0.7317" style="stop-color:#5C2C09"/>
		<stop  offset="0.7954" style="stop-color:#261407"/>
		<stop  offset="0.8296" style="stop-color:#060606"/>
	</linearGradient>
	<path class="st20" d="M254.9,248.6c1.7,2.5,2.7,2.1,5.5,3.6c1.7,1.2,2.7,2.7,4.1,3.9c0.3-3.6,0.6-6.5,1.9-8.9
		c-0.3-0.9-6-6.4-7.5-8.3C258.5,239.7,256.9,247.4,254.9,248.6z"/>
</g>
<g id="tai">
	<linearGradient id="SVGID_10_" gradientUnits="userSpaceOnUse" x1="297.025" y1="232.3537" x2="377.985" y2="232.3537">
		<stop  offset="0.176" style="stop-color:#A29B00"/>
		<stop  offset="0.2328" style="stop-color:#A8A200"/>
		<stop  offset="0.3126" style="stop-color:#B8B400"/>
		<stop  offset="0.4056" style="stop-color:#D2D200"/>
		<stop  offset="0.4609" style="stop-color:#E4E700"/>
		<stop  offset="0.5553" style="stop-color:#E2E500"/>
		<stop  offset="0.593" style="stop-color:#DBDE00"/>
		<stop  offset="0.6206" style="stop-color:#CFD200"/>
		<stop  offset="0.6432" style="stop-color:#BEC000"/>
		<stop  offset="0.6629" style="stop-color:#A8AA00"/>
		<stop  offset="0.6804" style="stop-color:#8C8E00"/>
		<stop  offset="0.6964" style="stop-color:#6B6C00"/>
		<stop  offset="0.7111" style="stop-color:#454600"/>
		<stop  offset="0.7244" style="stop-color:#1B1B00"/>
		<stop  offset="0.7318" style="stop-color:#000000"/>
		<stop  offset="0.7397" style="stop-color:#050200"/>
		<stop  offset="0.7486" style="stop-color:#120700"/>
		<stop  offset="0.758" style="stop-color:#291000"/>
		<stop  offset="0.7678" style="stop-color:#481D00"/>
		<stop  offset="0.7778" style="stop-color:#712D00"/>
		<stop  offset="0.7878" style="stop-color:#A24000"/>
		<stop  offset="0.7961" style="stop-color:#D05200"/>
		<stop  offset="0.8687" style="stop-color:#B1B900"/>
		<stop  offset="0.8901" style="stop-color:#B0B700"/>
		<stop  offset="0.8978" style="stop-color:#ABB001"/>
		<stop  offset="0.9033" style="stop-color:#A4A502"/>
		<stop  offset="0.9078" style="stop-color:#989403"/>
		<stop  offset="0.9116" style="stop-color:#8A7E04"/>
		<stop  offset="0.9149" style="stop-color:#786207"/>
		<stop  offset="0.918" style="stop-color:#634209"/>
		<stop  offset="0.9207" style="stop-color:#4B1E0C"/>
		<stop  offset="0.9218" style="stop-color:#400D0D"/>
		<stop  offset="0.9297" style="stop-color:#4A1814"/>
		<stop  offset="0.9437" style="stop-color:#663726"/>
		<stop  offset="0.9622" style="stop-color:#926843"/>
		<stop  offset="0.9843" style="stop-color:#D0AB6C"/>
		<stop  offset="1" style="stop-color:#FFDF8B"/>
	</linearGradient>
	<path class="st21" d="M359.8,226.5c3.2,2,14.8,3.2,18.2,2.3c-0.3,2.5-3.1,8.5-6.1,12.4c-4.2,1.9-9.4-1.3-12.7-2.9
		c-2-1-2.9-0.1-4.9,0.2c-2.1,1-48.5-6-52.6-12c-0.3,1.6-4.7,0.3-4.7,0.3s0.1-4.3,1.7-3.8c1.4-0.6-3.5,2.4,4.9,3.5
		c7.8,1.2,52.9,9.2,58.7,8.2C359.9,233.6,359.8,226.5,359.8,226.5z"/>
	<linearGradient id="SVGID_11_" gradientUnits="userSpaceOnUse" x1="194.8799" y1="150.1117" x2="300.8463" y2="150.1117">
		<stop  offset="0" style="stop-color:#000000"/>
		<stop  offset="3.971723e-02" style="stop-color:#050100"/>
		<stop  offset="8.447059e-02" style="stop-color:#120400"/>
		<stop  offset="0.1315" style="stop-color:#290900"/>
		<stop  offset="0.176" style="stop-color:#450F00"/>
		<stop  offset="0.2803" style="stop-color:#4C0F00"/>
		<stop  offset="0.4271" style="stop-color:#5E1000"/>
		<stop  offset="0.5988" style="stop-color:#7C1100"/>
		<stop  offset="0.7737" style="stop-color:#A21200"/>
		<stop  offset="0.8633" style="stop-color:#7E1005"/>
		<stop  offset="1" style="stop-color:#400D0D"/>
	</linearGradient>
	<path class="st22" d="M244.1,153.8c10.3,0,57.1,9.4,56.8,8.5c-2.2-3.8-3.8-7.3-4.8-10.5c-11.1,5.2-80.2-13.8-80.2-13.8
		c-0.8,3.6-20.7,5.4-21,5.7C196.8,146,222,152.5,244.1,153.8z"/>
	<linearGradient id="SVGID_12_" gradientUnits="userSpaceOnUse" x1="189.932" y1="122.3025" x2="210.28" y2="122.3025">
		<stop  offset="0" style="stop-color:#400D0D"/>
		<stop  offset="0.1081" style="stop-color:#2C0909"/>
		<stop  offset="0.2534" style="stop-color:#180505"/>
		<stop  offset="0.4211" style="stop-color:#0A0202"/>
		<stop  offset="0.6292" style="stop-color:#020000"/>
		<stop  offset="1" style="stop-color:#000000"/>
	</linearGradient>
	<path class="st23" d="M193.9,105.4c-0.2,1-1.1,3.3-2.4,5.8c-2.4,9.1-1.9,19.4,0.8,28c6.6-0.4,11.9-1.8,18-3c-1.2-2-3.4-7-4-12.3
		C202.8,109.4,195.8,106.5,193.9,105.4z"/>
	<path class="st24" d="M303.8,225.7c8.3,0,52.7,10.3,58.5,9c-2.4-1.1-2.5-8.2-2.5-8.2"/>
	<path class="st25" d="M273.8,251.7c1,0.7,5.2,4.8,5.8,6c0.8,2.7-2.2,2.9-3.6,4.9C274.8,265.2,272.1,252.4,273.8,251.7z"/>
	<path class="st26" d="M279.3,265.8c0.2-0.5,5.1,0.1,6.9,0s0.6,2.5,3.3,3.2C290.6,270.5,281.6,268.7,279.3,265.8z"/>
</g>
<g id="mặt">
	<linearGradient id="SVGID_13_" gradientUnits="userSpaceOnUse" x1="130.9" y1="204.2984" x2="308.86" y2="204.2984">
		<stop  offset="8.379889e-03" style="stop-color:#060606"/>
		<stop  offset="4.396465e-02" style="stop-color:#0A0A09"/>
		<stop  offset="8.237705e-02" style="stop-color:#171613"/>
		<stop  offset="0.122" style="stop-color:#2D2A23"/>
		<stop  offset="0.1313" style="stop-color:#333028"/>
		<stop  offset="0.6453" style="stop-color:#8C826C"/>
		<stop  offset="0.8296" style="stop-color:#7C7870"/>
	</linearGradient>
	<path class="st27" d="M189.7,167.6c-3.4-2.4-7.3-4.8-8.4-5.3c-1.1,0.1-5.6,4.1-13.1,2.4c-1.7-0.2-3.3-0.2-5.5-0.2
		c2.5,1.7,0.8,8.9-4.5,9.4c-2.1,1.4-17.2,0.5-19.7-0.2c1.8,3.1,3.4,4.9,4.4,5.9c1.3,0.5,7.6,0.1,11.8,8.5c-2.5-2-8.8-0.7-23.8,0.3
		c6.2,3.6,3.6,3.1,9.3,4.3c2.6,1.4,4.4,2.6,7,6.4c-3.2,0.3-7,0.7-10.7-0.5c1.3,11.6,21.3,43.7,114.8,47.8c4.2-4.6,4.4-3.2,5.5-11.6
		c2.3-4.8,7.8-7.5,13.4-7.2c3.2-0.1,6.8-0.6,9.7-0.6c3.3-0.1,5.6,0.2,5.1,0.1c0,0,4.2,0.8,1.4,1.9c0,0-3.6,2.6-6.5,5
		c6-0.2,10.7,0.3,12-1.1c1.9-0.2-4,7.1-4.6,9.2c0,0,9.6-6.5,9.7-8c0.1-2,2.7,1,2.4,4.5c1.1-1.1,1.5-5.3,2.8-6.2
		c-0.7-0.8-5.4-1.5-5.2-5.5c0.1-2,0.2-1.5,1.4-3.4c1.2-0.1,2-0.1,3.8-0.1c-1-3.8-0.1,1,4.9,1.2c1,0.2,1.4-0.5,1.6-5.9
		c0.3-3.4,0-6.2,0.2-7.3c-0.4-2.1-13-10.5-14.8-21.2c-1-1.5-2.1-5.4-2.6-6.6c-2.2,0.4-9.2,0-12.9-0.3c1.6,2.7,3.6,2.7,3.7,9.3
		c-0.8-1.3-1.3-2.6-1.9-3.3c-2-1.2-4.2-3.2-5.8-3c-5.4,9.9-15.2,1.2-16.1,1.8c-2.6,0.3-2,0.4-5.8,0.8c0.5-1.8,1.3-2.6,1.6-3.8
		c-2.8-1.3-6-0.6-8.5-0.9c1.2-0.7,1.9-1.1,2.3-1.6c-0.7-0.4-2.1,0.4-2.6,0.6c0.4-0.5,0.8-0.6,0.8-0.8c-0.3-0.2-1.4-0.2-1.7-0.3
		c0.3-0.1,2.2-0.2,3-0.9c0,0-31.8-4.4-33.3-5c-5.5-2.1-15.6-5.1-18.9-6c-9.2,1.7-14.8,11.8-15.2,15.1c5.4-2.6,16.3-1.8,24.7,1.7
		c5.2-1.9,4.2-2.4,7.5-6.1c-0.8,4-0.5,9.9-4.1,13.1c-2.9,3.3-6.8,4.4-8.4,5.5c1.3,0.3,8-1.7,10.7-1c3.2,0.1,13,0,14.1-2.2
		c1.1-2.2,2-3.8,2.8-5.4c-0.3,2.2,4,8.6-6.3,18.7c9,0.4,16.9-1,21.2-3.6c0,1-1,9-3.9,11.1c4.4,0.2,9-1.8,12.7,5.2
		c0.4,1.3-0.6,1.7-2.6,0c-2.2-3.5-11.3-3.8-19.2-1.8c3.7-3.4,5.9-4.4,8.4-9.3c-4.2,1.9-14.2,4.9-33.5,2c5.7-1.5,16.6-0.6,18.6-11.1
		c-5.6,1.7-11.2,1-17.3,1.2c-5.9-0.4-12.7,1.3-17.5,2.5c2.2-2.8,5.4-5.7,8.1-6.8c4.4-1.5,7.4-6.1,8.2-7.4c-1.9-0.8-1.9-0.6-4.5-2.8
		c-8.4-5.6-22.3,3.4-25.2,4.4C181.1,175.5,184,170.5,189.7,167.6z"/>
</g>
</svg>
